<?xml version="1.0" encoding="UTF-8" standalone="no"?>
<!-- Created with Inkscape (http://www.inkscape.org/) -->

<svg
   width="250"
   height="70"
   viewBox="0 0 66.145832 18.520832"
   version="1.1"
   id="svg1"
   inkscape:version="1.4 (86a8ad7, 2024-10-11)"
   sodipodi:docname="logo_desktop.svg"
   xml:space="preserve"
   xmlns:inkscape="http://www.inkscape.org/namespaces/inkscape"
   xmlns:sodipodi="http://sodipodi.sourceforge.net/DTD/sodipodi-0.dtd"
   xmlns:xlink="http://www.w3.org/1999/xlink"
   xmlns="http://www.w3.org/2000/svg"
   xmlns:svg="http://www.w3.org/2000/svg"><sodipodi:namedview
     id="namedview1"
     pagecolor="#ffffff"
     bordercolor="#000000"
     borderopacity="0.25"
     inkscape:showpageshadow="2"
     inkscape:pageopacity="0.0"
     inkscape:pagecheckerboard="0"
     inkscape:deskcolor="#d1d1d1"
     inkscape:document-units="mm"
     inkscape:zoom="2"
     inkscape:cx="130.75"
     inkscape:cy="123.25"
     inkscape:window-width="1239"
     inkscape:window-height="1041"
     inkscape:window-x="0"
     inkscape:window-y="0"
     inkscape:window-maximized="0"
     inkscape:current-layer="layer1" /><defs
     id="defs1"><linearGradient
       id="linearGradient8"
       inkscape:collect="always"><stop
         style="stop-color:#e6943a;stop-opacity:1;"
         offset="0"
         id="stop8" /><stop
         style="stop-color:#ff5252;stop-opacity:1;"
         offset="1"
         id="stop9" /></linearGradient><linearGradient
       id="linearGradient3"
       inkscape:collect="always"><stop
         style="stop-color:#db9d59;stop-opacity:1;"
         offset="0"
         id="stop3" /><stop
         style="stop-color:#e87959;stop-opacity:1;"
         offset="0.5"
         id="stop6" /><stop
         style="stop-color:#ff5050;stop-opacity:1;"
         offset="1"
         id="stop4" /></linearGradient><linearGradient
       inkscape:collect="always"
       xlink:href="#linearGradient3"
       id="linearGradient4"
       x1="9.4770374"
       y1="19.179852"
       x2="23.146414"
       y2="19.179852"
       gradientUnits="userSpaceOnUse" /><linearGradient
       inkscape:collect="always"
       xlink:href="#linearGradient8"
       id="linearGradient9"
       x1="2"
       y1="12"
       x2="22"
       y2="12"
       gradientUnits="userSpaceOnUse" /></defs><g
     inkscape:label="Layer 1"
     inkscape:groupmode="layer"
     id="layer1"><text
       xml:space="preserve"
       style="font-size:3.175px;line-height:0;text-align:start;letter-spacing:0.323215px;writing-mode:lr-tb;direction:ltr;text-anchor:start;white-space:pre;inline-size:16.1784;display:inline;fill:url(#linearGradient4);stroke-width:0.264583"
       x="9.1999369"
       y="20.351376"
       id="text1"
       transform="matrix(4.7537294,0,0,6.0582765,-44.855064,-104.98174)"><tspan
         x="9.1999369"
         y="20.351376"
         id="tspan3"><tspan
           style="font-weight:bold;font-size:3.34721px;font-family:Montserrat;-inkscape-font-specification:'Montserrat Bold'"
           id="tspan1">FITLAB</tspan></tspan></text><ellipse
       id="path1"
       style="fill:#000000;stroke:#000000;stroke-width:0.291206"
       cx="44.118202"
       cy="28.720005"
       rx="0.0133067"
       ry="0.013947801" /><ellipse
       id="path2"
       style="fill:#000000;stroke:#000000;stroke-width:0.291206"
       cx="57.105316"
       cy="24.32202"
       rx="0.0133067"
       ry="0.013947801" /><ellipse
       id="path3"
       style="fill:#000000;stroke:#000000;stroke-width:0.291206"
       cx="52.809574"
       cy="24.217306"
       rx="0.0133067"
       ry="0.013947801" /><g
       style="fill:#da9c58;fill-opacity:1"
       id="g6"
       transform="matrix(0.71187872,0,0,0.66774178,37.60223,-4.6096257)"><g
         id="SVGRepo_bgCarrier"
         stroke-width="0"
         style="fill:#da9c58;fill-opacity:1" /><g
         id="SVGRepo_tracerCarrier"
         stroke-linecap="round"
         stroke-linejoin="round"
         style="fill:#da9c58;fill-opacity:1" /><g
         id="SVGRepo_iconCarrier"
         style="fill:#da9c58;fill-opacity:1"><path
           d="M 22,14 V 10 C 22,9.06812 22,8.60218 21.8478,8.23463 21.6448,7.74458 21.2554,7.35523 20.7654,7.15224 20.3978,7 19.9319,7 19,7 18.0681,7 17.6022,7 17.2346,7.15224 16.7446,7.35523 16.3552,7.74458 16.1522,8.23463 16,8.60218 16,9.56812 16,10.5 H 8 C 8,9.56812 8,8.60218 7.84776,8.23463 7.64477,7.74458 7.25542,7.35523 6.76537,7.15224 6.39782,7 5.93188,7 5,7 4.06812,7 3.60218,7 3.23463,7.15224 2.74458,7.35523 2.35523,7.74458 2.15224,8.23463 2,8.60218 2,9.06812 2,10 v 4 c 0,0.9319 0,1.3978 0.15224,1.7654 0.20299,0.49 0.59234,0.8794 1.08239,1.0824 C 3.60218,17 4.06812,17 5,17 5.93188,17 6.39782,17 6.76537,16.8478 7.25542,16.6448 7.64477,16.2554 7.84776,15.7654 8,15.3978 8,14.4319 8,13.5 h 8 c 0,0.9319 0,1.8978 0.1522,2.2654 0.203,0.49 0.5924,0.8794 1.0824,1.0824 C 17.6022,17 18.0681,17 19,17 c 0.9319,0 1.3978,0 1.7654,-0.1522 0.49,-0.203 0.8794,-0.5924 1.0824,-1.0824 C 22,15.3978 22,14.9319 22,14 Z"
           fill="#ff7800"
           id="path1-4"
           style="fill:url(#linearGradient9);fill-opacity:1" /></g></g></g></svg>
