<?xml version="1.0" encoding="UTF-8" standalone="no"?>
<!-- Created with Inkscape (http://www.inkscape.org/) -->

<svg
   width="20mm"
   height="20mm"
   viewBox="0 0 20 20"
   version="1.1"
   id="svg1"
   inkscape:version="1.4 (86a8ad7, 2024-10-11)"
   sodipodi:docname="logo_mobile.svg"
   xmlns:inkscape="http://www.inkscape.org/namespaces/inkscape"
   xmlns:sodipodi="http://sodipodi.sourceforge.net/DTD/sodipodi-0.dtd"
   xmlns:xlink="http://www.w3.org/1999/xlink"
   xmlns="http://www.w3.org/2000/svg"
   xmlns:svg="http://www.w3.org/2000/svg">
  <sodipodi:namedview
     id="namedview1"
     pagecolor="#ffffff"
     bordercolor="#000000"
     borderopacity="0.25"
     inkscape:showpageshadow="2"
     inkscape:pageopacity="0.0"
     inkscape:pagecheckerboard="0"
     inkscape:deskcolor="#d1d1d1"
     inkscape:document-units="mm"
     inkscape:zoom="11.616723"
     inkscape:cx="29.784648"
     inkscape:cy="29.397275"
     inkscape:window-width="1920"
     inkscape:window-height="1017"
     inkscape:window-x="-8"
     inkscape:window-y="-8"
     inkscape:window-maximized="1"
     inkscape:current-layer="layer1" />
  <defs
     id="defs1">
    <linearGradient
       inkscape:collect="always"
       xlink:href="#linearGradient3"
       id="linearGradient4"
       x1="9.4770374"
       y1="19.179852"
       x2="23.146414"
       y2="19.179852"
       gradientUnits="userSpaceOnUse" />
    <linearGradient
       id="linearGradient3"
       inkscape:collect="always">
      <stop
         style="stop-color:#db9d59;stop-opacity:1;"
         offset="0"
         id="stop3" />
      <stop
         style="stop-color:#e87959;stop-opacity:1;"
         offset="0.5"
         id="stop6" />
      <stop
         style="stop-color:#ff5050;stop-opacity:1;"
         offset="1"
         id="stop4" />
    </linearGradient>
    <linearGradient
       id="linearGradient9"
       inkscape:collect="always"
       gradientTransform="matrix(1.4818895,0,0,0.70710678,-0.91606245,-0.72655715)"
       x1="1.4142137"
       y1="9.8994951"
       x2="15.556349"
       y2="9.8994951"
       gradientUnits="userSpaceOnUse">
      <stop
         style="stop-color:#db9d59;stop-opacity:1;"
         offset="0"
         id="stop7" />
      <stop
         style="stop-color:#e87959;stop-opacity:1;"
         offset="0.5"
         id="stop8" />
      <stop
         style="stop-color:#ff5050;stop-opacity:1;"
         offset="1"
         id="stop9" />
    </linearGradient>
    <linearGradient
       inkscape:collect="always"
       xlink:href="#linearGradient8"
       id="linearGradient10"
       x1="2"
       y1="12"
       x2="22"
       y2="12"
       gradientUnits="userSpaceOnUse" />
    <linearGradient
       id="linearGradient8"
       inkscape:collect="always">
      <stop
         style="stop-color:#e6943a;stop-opacity:1;"
         offset="0"
         id="stop10" />
      <stop
         style="stop-color:#ff5252;stop-opacity:1;"
         offset="1"
         id="stop11" />
    </linearGradient>
  </defs>
  <g
     inkscape:label="Layer 1"
     inkscape:groupmode="layer"
     id="layer1">
    <text
       xml:space="preserve"
       style="font-size:3.175px;line-height:0;text-align:start;letter-spacing:0.323215px;writing-mode:lr-tb;direction:ltr;text-anchor:start;white-space:pre;inline-size:16.1784;display:inline;fill:url(#linearGradient4);stroke-width:0.264583"
       x="9.1999369"
       y="20.351376"
       id="text1"
       transform="matrix(4.5221965,0,0,6.6081628,-36.860669,-114.48123)"><tspan
         x="9.1999369"
         y="20.351376"
         id="tspan4"><tspan
           style="font-weight:bold;font-size:3.34721px;font-family:Montserrat;-inkscape-font-specification:'Montserrat Bold'"
           id="tspan2">F</tspan></tspan></text>
    <g
       style="fill:#da9c58;fill-opacity:1"
       id="g6"
       transform="matrix(0.95384775,0,0,0.7130928,-1.1815911,-4.5212969)">
      <g
         id="SVGRepo_bgCarrier"
         stroke-width="0"
         style="fill:#da9c58;fill-opacity:1" />
      <g
         id="SVGRepo_tracerCarrier"
         stroke-linecap="round"
         stroke-linejoin="round"
         style="fill:#da9c58;fill-opacity:1" />
      <g
         id="SVGRepo_iconCarrier"
         style="fill:#da9c58;fill-opacity:1"
         transform="translate(0.06836287)">
        <path
           d="M 22.136725,13.273444 V 9.2734429 c 0,-0.93188 0,-1.39782 -0.159485,-1.76537 -0.212714,-0.49005 -0.620747,-0.8794 -1.134194,-1.08239 -0.385191,-0.15224 -0.873386,-0.15224 -1.849884,-0.15224 -0.976494,0 -1.464689,0 -1.849881,0.15224 -0.513449,0.20299 -0.921483,0.59234 -1.134198,1.08239 -0.159482,0.36755 -0.159482,1.33349 -0.159482,2.2653699 H 7.4667696 c 0,-0.9318799 0,-1.8978199 -0.1595252,-2.2653699 -0.212704,-0.49005 -0.6206858,-0.8794 -1.134187,-1.08239 -0.3851384,-0.15224 -0.8733755,-0.15224 -1.8498499,-0.15224 -0.9764742,0 -1.4647111,0 -1.8498501,0.15224 -0.5135008,0.20299 -0.9214827,0.59234 -1.1341866,1.08239 -0.1595253,0.36755 -0.1595253,0.83349 -0.1595253,1.76537 v 4.0000011 c 0,0.9319 0,1.3978 0.1595253,1.7654 0.2127039,0.49 0.6206858,0.8794 1.1341866,1.0824 0.385139,0.1522 0.8733759,0.1522 1.8498501,0.1522 0.9764744,0 1.4647115,0 1.8498499,-0.1522 0.5135012,-0.203 0.921483,-0.5924 1.134187,-1.0824 0.1595252,-0.3676 0.1595252,-1.3335 0.1595252,-2.2654 h 8.3828314 c 0,0.9319 0,1.8978 0.159482,2.2654 0.212715,0.49 0.620749,0.8794 1.134198,1.0824 0.385192,0.1522 0.873387,0.1522 1.849881,0.1522 0.976498,0 1.464693,0 1.849884,-0.1522 0.513447,-0.203 0.92148,-0.5924 1.134194,-1.0824 0.159485,-0.3676 0.159485,-0.8335 0.159485,-1.7654 z"
           fill="#ff7800"
           id="path1-4"
           style="fill:url(#linearGradient9);fill-opacity:1;stroke-width:1.02364" />
      </g>
    </g>
  </g>
</svg>
